<?xml version="1.0" encoding="UTF-8" standalone="no"?>
<!-- Generator: Adobe Illustrator 16.0.0, SVG Export Plug-In . SVG Version: 6.00 Build 0)  -->

<svg
   xmlns:dc="http://purl.org/dc/elements/1.1/"
   xmlns:cc="http://creativecommons.org/ns#"
   xmlns:rdf="http://www.w3.org/1999/02/22-rdf-syntax-ns#"
   xmlns:svg="http://www.w3.org/2000/svg"
   xmlns="http://www.w3.org/2000/svg"
   xmlns:sodipodi="http://sodipodi.sourceforge.net/DTD/sodipodi-0.dtd"
   xmlns:inkscape="http://www.inkscape.org/namespaces/inkscape"
   version="1.1"
   id="Layer_1"
   x="0px"
   y="0px"
   width="170.76401"
   height="57.242001"
   viewBox="0 0 170.76401 57.242001"
   enable-background="new 0 0 269 382"
   xml:space="preserve"
   inkscape:version="0.48.2 r9819"
   sodipodi:docname="logo.svg"><metadata
   id="metadata4493"><rdf:RDF><cc:Work
       rdf:about=""><dc:format>image/svg+xml</dc:format><dc:type
         rdf:resource="http://purl.org/dc/dcmitype/StillImage" /></cc:Work></rdf:RDF></metadata><defs
   id="defs4491" /><sodipodi:namedview
   pagecolor="#ffffff"
   bordercolor="#666666"
   borderopacity="1"
   objecttolerance="10"
   gridtolerance="10"
   guidetolerance="10"
   inkscape:pageopacity="0"
   inkscape:pageshadow="2"
   inkscape:window-width="640"
   inkscape:window-height="480"
   id="namedview4489"
   showgrid="false"
   fit-margin-top="0"
   fit-margin-left="0"
   fit-margin-right="0"
   fit-margin-bottom="0"
   inkscape:zoom="0.61780105"
   inkscape:cx="99.824"
   inkscape:cy="-109.509"
   inkscape:window-x="153"
   inkscape:window-y="62"
   inkscape:window-maximized="0"
   inkscape:current-layer="Layer_1" />
<g
   id="g4427"
   transform="translate(-34.676,-24.249)">
	<g
   id="g4429"
   style="opacity:0.7">
		<path
   d="m 149.316,73.661 c 0,-0.385 -0.136,-0.57 -0.458,-0.57 -0.322,0 -0.459,0.186 -0.459,0.57 v 6.566 c 0,0.384 0.137,0.57 0.459,0.57 0.322,0 0.458,-0.187 0.458,-0.57 v -1.251 h 0.818 v 1.275 c 0,0.756 -0.422,1.239 -1.276,1.239 -0.855,0 -1.276,-0.483 -1.276,-1.239 v -6.616 c 0,-0.756 0.421,-1.238 1.276,-1.238 0.854,0 1.276,0.482 1.276,1.238 v 1.178 h -0.818 v -1.152 z"
   id="path4431"
   inkscape:connector-curvature="0"
   style="fill:#c0c0c0" />
		<path
   d="m 155.494,73.909 c 0,-0.881 0.335,-1.512 1.438,-1.512 1.103,0 1.438,0.631 1.438,1.512 v 6.07 c 0,0.88 -0.335,1.512 -1.438,1.512 -1.103,0 -1.438,-0.632 -1.438,-1.512 v -6.07 z m 0.818,6.046 c 0,0.495 0.1,0.843 0.62,0.843 0.52,0 0.619,-0.348 0.619,-0.843 v -6.021 c 0,-0.496 -0.099,-0.843 -0.619,-0.843 -0.52,0 -0.62,0.347 -0.62,0.843 v 6.021 z"
   id="path4433"
   inkscape:connector-curvature="0"
   style="fill:#c0c0c0" />
		<path
   d="m 166.128,72.472 h 0.719 v 8.945 h -1.165 l -1.028,-7.955 h -0.024 v 7.955 h -0.719 v -8.945 h 1.189 l 1.004,7.656 h 0.024 v -7.656 z"
   id="path4435"
   inkscape:connector-curvature="0"
   style="fill:#c0c0c0" />
		<path
   d="m 174.072,73.698 c 0,-0.348 -0.086,-0.607 -0.471,-0.607 -0.384,0 -0.471,0.26 -0.471,0.607 v 0.941 c 0,0.285 0.05,0.57 0.186,0.805 l 1.302,2.23 c 0.186,0.311 0.297,0.694 0.297,1.091 v 1.412 c 0,0.843 -0.495,1.313 -1.313,1.313 -0.904,0 -1.338,-0.409 -1.338,-1.313 V 78.95 h 0.817 v 1.177 c 0,0.422 0.161,0.67 0.521,0.67 0.335,0 0.496,-0.248 0.496,-0.67 v -1.251 c 0,-0.31 -0.062,-0.545 -0.235,-0.854 l -1.202,-2.094 c -0.223,-0.385 -0.347,-0.682 -0.347,-1.141 V 73.71 c 0,-0.879 0.458,-1.312 1.288,-1.312 0.917,0 1.289,0.434 1.289,1.251 v 1.14 h -0.818 v -1.091 z"
   id="path4437"
   inkscape:connector-curvature="0"
   style="fill:#c0c0c0" />
		<path
   d="m 180.343,72.472 h 2.168 v 0.693 h -1.351 v 3.259 h 1.289 v 0.694 h -1.289 v 3.605 h 1.351 v 0.693 h -2.168 v -8.944 z"
   id="path4439"
   inkscape:connector-curvature="0"
   style="fill:#c0c0c0" />
		<path
   d="m 187.945,72.472 h 0.817 v 8.945 h -0.817 v -8.945 z"
   id="path4441"
   inkscape:connector-curvature="0"
   style="fill:#c0c0c0" />
		<path
   d="m 194.309,72.472 h 0.817 v 8.252 h 1.351 v 0.693 h -2.168 v -8.945 z"
   id="path4443"
   inkscape:connector-curvature="0"
   style="fill:#c0c0c0" />
		<path
   d="m 203.59,73.698 c 0,-0.348 -0.086,-0.607 -0.471,-0.607 -0.384,0 -0.471,0.26 -0.471,0.607 v 0.941 c 0,0.285 0.05,0.57 0.186,0.805 l 1.302,2.23 c 0.186,0.311 0.297,0.694 0.297,1.091 v 1.412 c 0,0.843 -0.495,1.313 -1.313,1.313 -0.904,0 -1.338,-0.409 -1.338,-1.313 V 78.95 h 0.817 v 1.177 c 0,0.422 0.161,0.67 0.521,0.67 0.335,0 0.496,-0.248 0.496,-0.67 v -1.251 c 0,-0.31 -0.062,-0.545 -0.235,-0.854 l -1.202,-2.094 c -0.223,-0.385 -0.347,-0.682 -0.347,-1.141 V 73.71 c 0,-0.879 0.458,-1.312 1.288,-1.312 0.917,0 1.289,0.434 1.289,1.251 v 1.14 h -0.818 v -1.091 z"
   id="path4445"
   inkscape:connector-curvature="0"
   style="fill:#c0c0c0" />
	</g>
	<g
   id="g4447">
		<path
   d="m 88.021,37.185 h 7.138 v 2.284 h -4.446 v 10.727 h 4.242 V 52.48 H 90.713 V 66.633 H 88.021 V 37.185 z"
   id="path4449"
   inkscape:connector-curvature="0"
   style="fill:#00e5e7" />
		<path
   d="m 97.663,41.917 c 0,-2.896 1.101,-4.976 4.731,-4.976 3.631,0 4.731,2.08 4.731,4.976 v 19.985 c 0,2.896 -1.101,4.977 -4.731,4.977 -3.63,0 -4.731,-2.08 -4.731,-4.977 V 41.917 z m 2.691,19.903 c 0,1.632 0.326,2.773 2.039,2.773 1.714,0 2.04,-1.142 2.04,-2.773 V 41.998 c 0,-1.631 -0.326,-2.773 -2.04,-2.773 -1.713,0 -2.039,1.142 -2.039,2.773 V 61.82 z"
   id="path4451"
   inkscape:connector-curvature="0"
   style="fill:#00e5e7" />
		<path
   d="m 116.738,54.274 c 0,-1.427 -0.856,-1.794 -2.121,-1.794 h -1.794 v 14.153 h -2.692 V 37.185 h 5.017 c 2.569,0 4.16,0.449 4.16,3.386 v 7.464 c 0,2.284 -0.856,3.059 -2.937,3.181 v 0.082 c 1.917,0.123 3.06,0.693 3.06,2.733 v 12.604 h -2.692 V 54.274 z m -2.121,-4.078 c 1.265,0 1.999,-0.367 1.999,-2.121 v -6.607 c 0,-1.713 -0.897,-1.999 -2.284,-1.999 h -1.509 v 10.727 h 1.794 z"
   id="path4453"
   inkscape:connector-curvature="0"
   style="fill:#00e5e7" />
		<path
   d="m 128.157,41.101 c 0,-1.264 -0.448,-1.876 -1.509,-1.876 -1.061,0 -1.509,0.612 -1.509,1.876 v 21.617 c 0,1.264 0.448,1.876 1.509,1.876 1.061,0 1.509,-0.612 1.509,-1.876 v -4.119 h 2.692 V 62.8 c 0,2.487 -1.387,4.078 -4.201,4.078 -2.814,0 -4.201,-1.591 -4.201,-4.078 V 41.019 c 0,-2.488 1.387,-4.079 4.201,-4.079 2.814,0 4.201,1.591 4.201,4.079 v 3.875 h -2.692 v -3.793 z"
   id="path4455"
   inkscape:connector-curvature="0"
   style="fill:#00e5e7" />
		<path
   d="m 133.228,37.185 h 7.138 v 2.284 h -4.445 v 10.727 h 4.241 v 2.284 h -4.241 v 11.868 h 4.445 v 2.285 h -7.138 V 37.185 z"
   id="path4457"
   inkscape:connector-curvature="0"
   style="fill:#00e5e7" />
		<path
   d="m 147.134,37.185 h 3.671 c 2.203,0 3.345,0.897 3.345,2.814 v 9.625 c 0,1.672 -1.142,2.814 -3.345,2.814 h -2.039 v 14.194 h -1.632 V 37.185 z m 3.386,14.031 c 1.183,0 1.998,-0.571 1.998,-1.754 v -9.218 c 0,-1.264 -0.733,-1.835 -1.998,-1.835 h -1.754 v 12.807 h 1.754 z"
   id="path4459"
   inkscape:connector-curvature="0"
   style="fill:#808285" />
		<path
   d="m 156.188,37.185 h 3.671 c 1.958,0 3.345,0.897 3.345,2.733 v 8.688 c 0,1.591 -0.448,2.733 -2.529,2.896 v 0.082 c 1.469,0.123 2.529,0.856 2.529,2.651 v 12.399 h -1.632 v -12.4 c 0,-1.102 -0.611,-2.121 -2.243,-2.121 h -1.509 v 14.521 h -1.632 V 37.185 z m 3.222,13.705 c 1.387,0 2.161,-0.653 2.161,-1.958 v -8.688 c 0,-1.264 -0.693,-1.835 -1.998,-1.835 h -1.754 V 50.89 h 1.591 z"
   id="path4461"
   inkscape:connector-curvature="0"
   style="fill:#808285" />
		<path
   d="m 172.751,63.615 c 0,2.039 -1.264,3.181 -3.548,3.181 -2.284,0 -3.59,-1.142 -3.59,-3.181 V 40.204 c 0,-2.04 1.306,-3.182 3.59,-3.182 2.284,0 3.548,1.142 3.548,3.182 V 63.615 z M 171.12,40.244 c 0,-1.305 -0.734,-1.999 -1.917,-1.999 -1.184,0 -1.958,0.693 -1.958,1.999 v 23.33 c 0,1.306 0.774,1.999 1.958,1.999 1.183,0 1.917,-0.693 1.917,-1.999 v -23.33 z"
   id="path4463"
   inkscape:connector-curvature="0"
   style="fill:#808285" />
		<path
   d="m 176.132,58.761 v 4.977 c 0,1.143 0.326,1.836 1.428,1.836 1.142,0 1.428,-0.693 1.428,-1.836 V 37.185 h 1.631 v 26.593 c 0,1.876 -1.264,3.018 -3.059,3.018 -1.795,0 -3.059,-1.142 -3.059,-3.018 V 58.76 h 1.631 z"
   id="path4465"
   inkscape:connector-curvature="0"
   style="fill:#808285" />
		<path
   d="m 182.976,37.185 h 5.588 v 1.224 h -3.956 V 50.89 h 3.712 v 1.224 h -3.712 V 65.41 h 4.242 v 1.225 h -5.874 v -29.45 z"
   id="path4467"
   inkscape:connector-curvature="0"
   style="fill:#808285" />
		<path
   d="m 192.703,38.409 h -2.896 v -1.224 h 7.423 v 1.224 h -2.896 v 28.225 h -1.632 V 38.409 z"
   id="path4469"
   inkscape:connector-curvature="0"
   style="fill:#808285" />
		<path
   d="m 199.934,63.778 c 0,0.979 0.367,1.795 1.876,1.795 1.387,0 1.999,-0.531 1.999,-1.877 V 58.64 c 0,-1.551 -0.286,-2.447 -0.856,-3.794 l -3.427,-6.485 c -0.693,-1.305 -1.06,-2.855 -1.06,-3.997 v -4.283 c 0,-1.917 1.305,-3.059 3.385,-3.059 2.202,0 3.345,0.816 3.345,2.733 v 5.261 h -1.469 v -5.098 c 0,-1.183 -0.611,-1.672 -1.754,-1.672 -1.142,0 -1.754,0.775 -1.754,1.754 v 4.568 c 0,0.979 0.204,1.835 0.653,2.814 l 3.344,6.404 c 0.694,1.387 1.224,2.813 1.224,4.445 v 5.547 c 0,1.876 -0.938,3.018 -3.507,3.018 -2.529,0 -3.467,-1.142 -3.467,-3.141 v -5.221 h 1.468 v 5.344 z"
   id="path4471"
   inkscape:connector-curvature="0"
   style="fill:#808285" />
	</g>
	<g
   id="g4473">
		<polygon
   points="78.336,59.593 72.857,55.341 56.709,67.876 40.357,55.182 34.676,59.593 56.506,76.54 "
   id="polygon4475"
   style="opacity:0.2;fill:#00e5e7" />
		<polygon
   points="78.537,50.928 72.274,46.063 66.591,50.474 72.857,55.341 "
   id="polygon4477"
   style="opacity:0.2;fill:#00e5e7" />
		<polygon
   points="46.624,50.316 41.145,46.063 34.878,50.928 40.357,55.182 "
   id="polygon4479"
   style="opacity:0.2;fill:#00e5e7" />
		<polygon
   points="56.709,67.876 72.857,55.341 66.591,50.474 56.709,58.147 46.624,50.316 40.357,55.182 "
   id="polygon4481"
   style="opacity:0.4;fill:#00e5e7" />
		<polygon
   points="34.878,41.199 41.145,46.063 56.709,33.977 72.274,46.063 78.537,41.199 56.709,24.249 "
   id="polygon4483"
   style="opacity:0.2;fill:#00e5e7" />
		<polygon
   points="56.709,33.977 41.145,46.063 46.624,50.316 56.506,42.643 66.591,50.474 72.274,46.063 "
   id="polygon4485"
   style="opacity:0.4;fill:#00e5e7" />
		<polygon
   points="56.506,42.643 46.624,50.316 56.709,58.147 66.591,50.474 "
   id="polygon4487"
   style="opacity:0.6;fill:#00e5e7" />
	</g>
</g>
</svg>